<svg xmlns="http://www.w3.org/2000/svg" width="14" height="19" viewBox="0 0 14 19">
  <defs>
    <linearGradient id="award-a" x1="50%" x2="50%" y1="50%" y2="50%">
      <stop offset="0%" stop-color="#FCB300"/>
      <stop offset="100%" stop-color="#F79300"/>
    </linearGradient>
    <linearGradient id="award-b" x1="50%" x2="50%" y1="0%" y2="100%">
      <stop offset="0%" stop-color="#FFF"/>
      <stop offset="100%" stop-color="#FFFAEB"/>
    </linearGradient>
  </defs>
  <g fill="none" transform="translate(.018 .005)">
    <path fill="#FCD000" d="M1.87284768,12.4980132 C3.00397351,13.4807947 4.43178808,14.1298013 5.98940397,14.2966887 L4.02384106,17.9682119 C3.93112583,18.0423841 3.81986755,18.0980132 3.70860927,18.0980132 C3.65298013,18.0980132 3.65298013,18.0980132 3.70860927,18.0980132 C3.52317881,18.0980132 3.39337748,17.9682119 3.33774834,17.8384106 L2.70728477,15.5761589 L0.482119205,16.2066225 C0.352317881,16.2622517 0.166887417,16.2066225 0.111258278,16.0768212 C0.0556291391,15.9470199 -0.0185430464,15.8357616 0.0556291391,15.7059603 L1.87284768,12.4980132 L1.87284768,12.4980132 Z"/>
    <path fill="#F7B500" d="M7.95496689,14.2225166 C9.49403974,13.9629139 10.8662252,13.2582781 11.9417219,12.2198675 L13.8701987,15.6317881 C13.9258278,15.7615894 13.9258278,15.9470199 13.8145695,16.002649 C13.7589404,16.1324503 13.5735099,16.1880795 13.4437086,16.1324503 L11.218543,15.5019868 L10.6066225,17.7456954 C10.6622517,17.9311258 10.5509934,18.0609272 10.3655629,18.0609272 C10.2357616,18.0609272 10.1059603,17.986755 10.0503311,17.8754967 L7.95496689,14.2225166 Z"/>
    <path fill="url(#award-a)" d="M6.74966887,13.5735099 C3.0410596,13.5735099 0,10.5139073 0,6.78675497 C0,3.05960265 3.0410596,0 6.74966887,0 C10.4582781,0 13.5550512,2.98543046 13.5550512,6.71258278 C13.5735099,10.4582781 10.5324503,13.5735099 6.74966887,13.5735099 Z"/>
    <path fill="url(#award-b)" d="M4.93245033,10.1801325 L5.00662252,10.1801325 L6.73112583,9.32715232 L8.43708609,10.1801325 C8.56688742,10.1801325 8.71523179,10.1801325 8.84503311,10.1059603 C8.9192053,10.0317881 8.97483444,9.88344371 8.97483444,9.75364238 L8.77086093,7.82516556 L10.0688742,6.39735099 C10.1430464,6.24900662 10.1986755,6.1192053 10.1430464,5.97086093 C10.1430464,5.82251656 10.013245,5.69271523 9.86490066,5.69271523 L8.01059603,5.34039735 L7.1205298,3.63443709 C6.99072848,3.35629139 6.56423841,3.35629139 6.43443709,3.63443709 L5.54437086,5.34039735 L3.69006623,5.69271523 C3.5602649,5.76688742 3.48609272,5.8410596 3.41192053,5.97086093 C3.33774834,6.1192053 3.41192053,6.24900662 3.48609272,6.39735099 L4.78410596,7.82516556 L4.58013245,9.75364238 C4.50596026,9.90198675 4.58013245,10.0317881 4.70993377,10.1059603 C4.80264901,10.1801325 4.85827815,10.1801325 4.93245033,10.1801325 Z"/>
  </g>
</svg>
